<svg width="24" height="19" viewBox="0 0 24 19" fill="none" xmlns="http://www.w3.org/2000/svg">
<path d="M0.011875 18L4.42788 0.48H8.29188L12.7319 18H9.65988L8.69988 13.752H4.04388L3.08388 18H0.011875ZM4.59588 11.304H8.14788L7.09188 6.6C6.91588 5.816 6.76388 5.112 6.63588 4.488C6.50788 3.848 6.41988 3.384 6.37188 3.096C6.32388 3.384 6.23588 3.848 6.10788 4.488C5.99588 5.112 5.84388 5.808 5.65188 6.576L4.59588 11.304Z" fill="white"/>
<path d="M20.7625 18.24C20.0745 18.24 19.5225 18.04 19.1065 17.64C18.7065 17.24 18.5065 16.696 18.5065 16.008C18.5065 15.32 18.7065 14.776 19.1065 14.376C19.5225 13.96 20.0745 13.752 20.7625 13.752C21.4505 13.752 21.9945 13.96 22.3945 14.376C22.8105 14.776 23.0185 15.32 23.0185 16.008C23.0185 16.696 22.8105 17.24 22.3945 17.64C21.9945 18.04 21.4505 18.24 20.7625 18.24Z" fill="#A3E635"/>
</svg>
