<svg width="139" height="19" viewBox="0 0 139 19" fill="none" xmlns="http://www.w3.org/2000/svg">
<path d="M0.84 18L5.256 0.48H9.12L13.56 18H10.488L9.528 13.752H4.872L3.912 18H0.84ZM5.424 11.304H8.976L7.92 6.6C7.744 5.816 7.592 5.112 7.464 4.488C7.336 3.848 7.248 3.384 7.2 3.096C7.152 3.384 7.064 3.848 6.936 4.488C6.824 5.112 6.672 5.808 6.48 6.576L5.424 11.304ZM21.5906 18.24C19.8786 18.24 18.5346 17.776 17.5586 16.848C16.5986 15.904 16.1186 14.624 16.1186 13.008V0.48H19.1426V12.984C19.1426 13.816 19.3506 14.464 19.7666 14.928C20.1826 15.392 20.7906 15.624 21.5906 15.624C22.3746 15.624 22.9746 15.392 23.3906 14.928C23.8226 14.464 24.0386 13.816 24.0386 12.984V0.48H27.0626V13.008C27.0626 14.624 26.5826 15.904 25.6226 16.848C24.6626 17.776 23.3186 18.24 21.5906 18.24ZM34.4693 18V3.264H29.8853V0.48H42.0773V3.264H37.4933V18H34.4693ZM45.0199 18V0.48H48.0199V7.512H52.7239V0.48H55.7239V18H52.7239V10.296H48.0199V18H45.0199ZM64.7625 18.24C63.6425 18.24 62.6665 18.032 61.8345 17.616C61.0185 17.184 60.3865 16.584 59.9385 15.816C59.5065 15.032 59.2905 14.112 59.2905 13.056V5.424C59.2905 4.368 59.5065 3.456 59.9385 2.688C60.3865 1.904 61.0185 1.304 61.8345 0.887999C62.6665 0.455999 63.6425 0.24 64.7625 0.24C65.8985 0.24 66.8745 0.455999 67.6905 0.887999C68.5065 1.304 69.1305 1.904 69.5625 2.688C70.0105 3.456 70.2345 4.36 70.2345 5.4V13.056C70.2345 14.112 70.0105 15.032 69.5625 15.816C69.1305 16.584 68.5065 17.184 67.6905 17.616C66.8745 18.032 65.8985 18.24 64.7625 18.24ZM64.7625 15.6C65.5785 15.6 66.1945 15.384 66.6105 14.952C67.0265 14.504 67.2345 13.872 67.2345 13.056V5.424C67.2345 4.592 67.0265 3.96 66.6105 3.528C66.1945 3.096 65.5785 2.88 64.7625 2.88C63.9465 2.88 63.3305 3.096 62.9145 3.528C62.4985 3.96 62.2905 4.592 62.2905 5.424V13.056C62.2905 13.872 62.4985 14.504 62.9145 14.952C63.3465 15.384 63.9625 15.6 64.7625 15.6ZM73.7771 18V0.48H79.3211C80.4891 0.48 81.4971 0.696 82.3451 1.128C83.2091 1.56 83.8811 2.168 84.3611 2.952C84.8411 3.72 85.0811 4.632 85.0811 5.688C85.0811 6.84 84.7851 7.856 84.1931 8.736C83.6171 9.616 82.8331 10.24 81.8411 10.608L85.3211 18H81.9611L78.9131 11.04H76.7771V18H73.7771ZM76.7771 8.4H79.3211C80.1691 8.4 80.8331 8.168 81.3131 7.704C81.7931 7.24 82.0331 6.6 82.0331 5.784C82.0331 4.952 81.7931 4.304 81.3131 3.84C80.8331 3.36 80.1691 3.12 79.3211 3.12H76.7771V8.4ZM88.5038 18V15.36H92.0318V3.12H88.5038V0.48H98.5838V3.12H95.0558V15.36H98.5838V18H88.5038ZM106.422 18V3.264H101.838V0.48H114.03V3.264H109.446V18H106.422ZM120.813 18V11.64L115.677 0.48H118.821L121.557 6.552C121.765 7.032 121.941 7.504 122.085 7.968C122.229 8.432 122.325 8.792 122.373 9.048C122.437 8.792 122.533 8.432 122.661 7.968C122.805 7.504 122.981 7.032 123.189 6.552L125.853 0.48H128.973L123.837 11.64V18H120.813Z" fill="white"/>
<path d="M136.716 18.24C136.028 18.24 135.476 18.04 135.06 17.64C134.66 17.24 134.46 16.696 134.46 16.008C134.46 15.32 134.66 14.776 135.06 14.376C135.476 13.96 136.028 13.752 136.716 13.752C137.404 13.752 137.948 13.96 138.348 14.376C138.764 14.776 138.972 15.32 138.972 16.008C138.972 16.696 138.764 17.24 138.348 17.64C137.948 18.04 137.404 18.24 136.716 18.24Z" fill="#A3E635"/>
</svg>
