<svg width="139" height="24" viewBox="0 0 139 24" fill="none" xmlns="http://www.w3.org/2000/svg">
<path d="M0.84 19L5.256 1.48H9.12L13.56 19H10.488L9.528 14.752H4.872L3.912 19H0.84ZM5.424 12.304H8.976L7.92 7.6C7.744 6.816 7.592 6.112 7.464 5.488C7.336 4.848 7.248 4.384 7.2 4.096C7.152 4.384 7.064 4.848 6.936 5.488C6.824 6.112 6.672 6.808 6.48 7.576L5.424 12.304ZM21.5906 19.24C19.9106 19.24 18.5906 18.776 17.6306 17.848C16.6706 16.904 16.1906 15.624 16.1906 14.008V5.8H19.1906V13.984C19.1906 14.832 19.3986 15.488 19.8146 15.952C20.2306 16.4 20.8226 16.624 21.5906 16.624C22.3426 16.624 22.9266 16.4 23.3426 15.952C23.7746 15.488 23.9906 14.832 23.9906 13.984V5.8H26.9906V14.008C26.9906 15.624 26.5026 16.904 25.5266 17.848C24.5506 18.776 23.2386 19.24 21.5906 19.24ZM37.4213 19C36.1573 19 35.1653 18.648 34.4453 17.944C33.7413 17.24 33.3893 16.272 33.3893 15.04V8.512H29.8133V5.8H33.3893V2.08H36.4133V5.8H41.4773V8.512H36.4133V15.04C36.4133 15.872 36.8213 16.288 37.6373 16.288H41.2373V19H37.4213ZM45.0199 19V1.48H48.0199V5.8L47.9479 8.32H48.7639L47.9479 9.016C47.9479 7.928 48.2599 7.08 48.8839 6.472C49.5239 5.864 50.3959 5.56 51.4999 5.56C52.7959 5.56 53.8279 5.992 54.5959 6.856C55.3799 7.72 55.7719 8.88 55.7719 10.336V19H52.7719V10.648C52.7719 9.848 52.5639 9.232 52.1479 8.8C51.7319 8.368 51.1479 8.152 50.3959 8.152C49.6599 8.152 49.0759 8.376 48.6439 8.824C48.2279 9.272 48.0199 9.912 48.0199 10.744V19H45.0199ZM64.7625 19.216C63.6425 19.216 62.6665 19.008 61.8345 18.592C61.0185 18.16 60.3785 17.56 59.9145 16.792C59.4665 16.008 59.2425 15.088 59.2425 14.032V10.768C59.2425 9.712 59.4665 8.8 59.9145 8.032C60.3785 7.248 61.0185 6.648 61.8345 6.232C62.6665 5.8 63.6425 5.584 64.7625 5.584C65.8985 5.584 66.8745 5.8 67.6905 6.232C68.5065 6.648 69.1385 7.248 69.5865 8.032C70.0505 8.8 70.2825 9.704 70.2825 10.744V14.032C70.2825 15.088 70.0505 16.008 69.5865 16.792C69.1385 17.56 68.5065 18.16 67.6905 18.592C66.8745 19.008 65.8985 19.216 64.7625 19.216ZM64.7625 16.6C65.5625 16.6 66.1785 16.384 66.6105 15.952C67.0585 15.504 67.2825 14.864 67.2825 14.032V10.768C67.2825 9.92 67.0585 9.28 66.6105 8.848C66.1785 8.416 65.5625 8.2 64.7625 8.2C63.9785 8.2 63.3625 8.416 62.9145 8.848C62.4665 9.28 62.2425 9.92 62.2425 10.768V14.032C62.2425 14.864 62.4665 15.504 62.9145 15.952C63.3625 16.384 63.9785 16.6 64.7625 16.6ZM74.2091 19V5.8H77.0411V8.32H77.7851L76.8971 9.856C76.8971 8.432 77.2171 7.36 77.8571 6.64C78.4971 5.92 79.4411 5.56 80.6891 5.56C82.1131 5.56 83.2331 6 84.0491 6.88C84.8651 7.76 85.2731 8.976 85.2731 10.528V11.488H82.1291V10.744C82.1291 9.896 81.9051 9.24 81.4571 8.776C81.0251 8.312 80.4251 8.08 79.6571 8.08C78.8731 8.08 78.2651 8.312 77.8331 8.776C77.4171 9.24 77.2091 9.896 77.2091 10.744V19H74.2091ZM88.1678 19V16.264H92.7758V8.512H88.7678V5.8H95.6558V16.264H99.7358V19H88.1678ZM93.9758 3.592C93.3678 3.592 92.8878 3.44 92.5358 3.136C92.1838 2.816 92.0078 2.392 92.0078 1.864C92.0078 1.336 92.1838 0.919999 92.5358 0.615999C92.8878 0.296 93.3678 0.136 93.9758 0.136C94.5838 0.136 95.0638 0.296 95.4158 0.615999C95.7678 0.919999 95.9438 1.336 95.9438 1.864C95.9438 2.392 95.7678 2.816 95.4158 3.136C95.0638 3.44 94.5838 3.592 93.9758 3.592ZM109.374 19C108.11 19 107.118 18.648 106.398 17.944C105.694 17.24 105.342 16.272 105.342 15.04V8.512H101.766V5.8H105.342V2.08H108.366V5.8H113.43V8.512H108.366V15.04C108.366 15.872 108.774 16.288 109.59 16.288H113.19V19H109.374ZM119.109 23.32L120.957 18.28L116.037 5.8H119.325L121.773 12.544C121.901 12.912 122.029 13.36 122.157 13.888C122.285 14.4 122.381 14.824 122.445 15.16C122.525 14.824 122.629 14.4 122.757 13.888C122.885 13.36 123.013 12.912 123.141 12.544L125.445 5.8H128.613L122.253 23.32H119.109Z" fill="white"/>
<path d="M136.716 19.24C136.028 19.24 135.476 19.04 135.06 18.64C134.66 18.24 134.46 17.696 134.46 17.008C134.46 16.32 134.66 15.776 135.06 15.376C135.476 14.96 136.028 14.752 136.716 14.752C137.404 14.752 137.948 14.96 138.348 15.376C138.764 15.776 138.972 16.32 138.972 17.008C138.972 17.696 138.764 18.24 138.348 18.64C137.948 19.04 137.404 19.24 136.716 19.24Z" fill="#A3E635"/>
</svg>
