<svg xmlns="http://www.w3.org/2000/svg" width="500" height="500" viewBox="0 0 500 500" version="1.1"><path d="M 168.655 231.750 C 168.400 232.162, 169.905 232.500, 172 232.500 C 174.095 232.500, 175.600 232.162, 175.345 231.750 C 175.091 231.338, 173.585 231, 172 231 C 170.415 231, 168.909 231.338, 168.655 231.750 M 240.787 234 C 241.029 235.650, 241.401 237, 241.613 237 C 241.826 237, 242 235.650, 242 234 C 242 232.350, 241.628 231, 241.173 231 C 240.718 231, 240.545 232.350, 240.787 234 M 287.232 234 C 287.232 235.925, 287.438 236.713, 287.689 235.750 C 287.941 234.787, 287.941 233.213, 287.689 232.250 C 287.438 231.287, 287.232 232.075, 287.232 234 M 293.430 237.321 C 293.151 238.048, 293.056 243.110, 293.219 248.571 L 293.514 258.500 294.007 247.248 C 294.278 241.059, 294.373 235.997, 294.219 235.998 C 294.064 235.999, 293.709 236.595, 293.430 237.321 M 215.252 240.500 C 215.263 242.700, 215.468 243.482, 215.707 242.238 C 215.946 240.994, 215.937 239.194, 215.687 238.238 C 215.437 237.282, 215.241 238.300, 215.252 240.500 M 241 240.500 C 241 241.875, 241.173 243, 241.383 243 C 241.594 243, 241.982 241.875, 242.245 240.500 C 242.508 239.125, 242.335 238, 241.861 238 C 241.388 238, 241 239.125, 241 240.500 M 220.320 252 C 220.320 255.575, 220.502 257.038, 220.723 255.250 C 220.945 253.463, 220.945 250.537, 220.723 248.750 C 220.502 246.963, 220.320 248.425, 220.320 252 M 287.272 250 C 287.272 252.475, 287.467 253.488, 287.706 252.250 C 287.944 251.012, 287.944 248.988, 287.706 247.750 C 287.467 246.512, 287.272 247.525, 287.272 250 M 323.310 251.500 C 323.315 254.800, 323.502 256.029, 323.725 254.232 C 323.947 252.435, 323.943 249.735, 323.715 248.232 C 323.486 246.729, 323.304 248.200, 323.310 251.500 M 241 253.500 C 241 256.158, 241.204 258.129, 241.454 257.879 C 242.236 257.097, 242.440 250.106, 241.702 249.369 C 241.316 248.983, 241 250.842, 241 253.500 M 317.286 253.500 C 317.294 256.250, 317.488 257.256, 317.718 255.736 C 317.947 254.216, 317.941 251.966, 317.704 250.736 C 317.467 249.506, 317.279 250.750, 317.286 253.500 M 273.252 253.500 C 273.263 255.700, 273.468 256.482, 273.707 255.238 C 273.946 253.994, 273.937 252.194, 273.687 251.238 C 273.437 250.282, 273.241 251.300, 273.252 253.500 M 332.200 252.200 C 328.967 255.433, 333.953 260.944, 337.470 258.025 C 340.311 255.667, 338.670 251, 335 251 C 334.120 251, 332.860 251.540, 332.200 252.200" stroke="none" fill="#ececec" fill-rule="evenodd"/><path d="M 183.118 231.750 C 183.184 232.162, 183.184 236.524, 183.118 241.441 C 183.013 249.400, 182.845 250.170, 181.589 248.452 C 180.812 247.391, 180.389 246.180, 180.648 245.761 C 180.906 245.342, 180.737 245, 180.272 245 C 179.806 245, 179.359 244.119, 179.278 243.042 C 179.197 241.965, 178.214 239.010, 177.093 236.476 C 175.213 232.228, 174.804 231.894, 171.832 232.185 C 168.907 232.471, 168.395 233.053, 166.278 238.500 C 164.996 241.800, 163.087 246.300, 162.036 248.500 C 160.985 250.700, 159.659 253.738, 159.088 255.250 C 158.078 257.924, 158.146 258, 161.550 258 C 164.363 258, 165.236 257.509, 166 255.500 C 166.839 253.293, 167.537 253, 171.956 253 C 176.462 253, 177.025 253.250, 177.589 255.500 C 178.126 257.639, 178.787 258, 182.167 258 C 184.430 258, 185.865 257.591, 185.526 257.042 C 185.201 256.515, 186.186 256.738, 187.717 257.536 C 191.297 259.403, 195.346 259.390, 199.003 257.498 C 202.495 255.693, 203.986 251.177, 203.994 242.389 C 204 236.410, 204.054 236.288, 206.500 236.755 C 208.975 237.228, 209 237.335, 209 247.617 L 209 258 212 258 C 214.883 258, 215.008 257.815, 215.206 253.250 C 215.320 250.637, 215.283 245.879, 215.125 242.676 L 214.837 236.851 217.668 237.176 C 220.771 237.531, 220.596 236.737, 220.881 251.750 L 221 258 224 258 C 226.932 258, 227 257.887, 227 253.019 C 227 248.674, 227.287 247.972, 229.250 247.519 C 234.711 246.259, 235.526 246.973, 235.157 252.692 L 234.815 258 237.907 258 C 240.921 258, 241 257.881, 241 253.352 L 241 248.704 243.263 252.102 C 248.311 259.681, 257.416 260.784, 263.629 254.571 C 266.990 251.210, 268 251.559, 268 256.082 C 268 257.520, 268.707 258, 270.827 258 C 273.396 258, 273.614 257.728, 273.215 255.012 C 272.974 253.369, 273.051 251.311, 273.385 250.438 C 274.092 248.596, 275.062 249.361, 278.851 254.750 C 280.989 257.791, 281.515 258, 287.034 258 L 292.932 258 293.216 247.344 C 293.454 238.433, 293.765 236.648, 295.116 236.452 C 298.825 235.911, 299.386 237.512, 299.137 247.926 L 298.896 258 301.948 258 C 304.157 258, 305.022 257.517, 305.081 256.250 C 305.125 255.287, 305.197 250.402, 305.240 245.394 C 305.325 235.584, 304.970 236.159, 310.500 236.874 C 312.929 237.189, 317.201 246.124, 317.734 252.006 C 318.247 257.662, 318.425 258, 320.889 258.001 C 323.417 258.003, 323.490 257.835, 323.169 252.699 C 322.855 247.675, 323.130 246.971, 328.373 239.360 L 333.908 231.324 329.928 231.168 C 326.249 231.024, 325.737 231.346, 323.155 235.417 L 320.361 239.822 317.951 235.411 L 315.542 231 301.907 231 L 288.272 231 287.693 235.250 C 287.375 237.588, 287.366 242.762, 287.673 246.750 C 288.318 255.108, 286.992 256.257, 283.332 250.512 C 281.411 247.496, 281.338 246.965, 282.686 245.845 C 286.835 242.402, 286.028 234.426, 281.311 232.250 C 279.821 231.563, 275.991 231, 272.801 231 L 267 231 267 234.656 L 267 238.311 264.750 235.778 C 261.570 232.198, 258.796 231, 253.684 231 C 249.995 231, 248.702 231.548, 246.091 234.219 C 244.360 235.989, 242.560 238.801, 242.091 240.469 C 241.344 243.122, 241.235 242.837, 241.215 238.180 C 241.190 232.205, 240.930 231.726, 237.462 231.261 C 235.103 230.945, 235 231.163, 235 236.466 L 235 242 231.052 242 L 227.105 242 226.802 236.750 L 226.500 231.500 212 231.500 L 197.500 231.500 197 241.500 C 196.525 251.008, 196.387 251.516, 194.195 251.827 C 189.841 252.444, 188.950 250.509, 189.344 241.290 C 189.693 233.122, 189.625 232.808, 187.288 231.919 C 184.355 230.804, 182.960 230.748, 183.118 231.750 M 273.626 237.533 C 272.416 240.685, 272.946 243, 274.878 243 C 277.655 243, 279.635 240.231, 278.335 238.166 C 276.901 235.889, 274.386 235.551, 273.626 237.533 M 250.736 238.250 C 245.844 241.965, 247.555 250.607, 253.500 252.204 C 258.935 253.665, 262.898 246.475, 259.850 240.684 C 257.820 236.827, 253.966 235.798, 250.736 238.250 M 170.436 242.750 C 170.104 244.262, 169.660 246.063, 169.448 246.750 C 169.212 247.516, 170.018 248, 171.531 248 C 174.116 248, 174.548 246.648, 173.370 242.250 C 172.548 239.184, 171.165 239.420, 170.436 242.750" stroke="none" fill="#fbfbfb" fill-rule="evenodd"/></svg>